<?xml version="1.0" standalone="no"?> 
<!DOCTYPE svg PUBLIC "-//W3C//DTD SVG 1.1//EN" "http://www.w3.org/Graphics/SVG/1.1/DTD/svg11.dtd" >
<svg xmlns="http://www.w3.org/2000/svg">
<defs>
  <font id="iconae-regular" horiz-adv-x="512">
    <font-face font-family="iconae-regular"
      units-per-em="512" ascent="448"
      descent="64" />
    <missing-glyph horiz-adv-x="0" />
    <glyph glyph-name="arrow-circle-down"
      unicode="&#xF101;"
      horiz-adv-x="512" d=" M256 448C114.6 448 0 333.4 0 192S114.6 -64 256 -64S512 50.6 512 192S397.4 448 256 448zM480 192C480 161.7 474.1 132.4 462.4 104.8C451.1 78.1 435 54.2 414.4 33.6S369.9 -3.1 343.2 -14.4C315.6 -26.1 286.3 -32 256 -32S196.4 -26.1 168.8 -14.4C142.1 -3.1 118.2 13 97.6 33.6S60.9 78.1 49.6 104.8C37.9 132.4 32 161.7 32 192S37.9 251.6 49.6 279.2C60.9 305.9 77 329.8 97.6 350.4S142.1 387.1 168.8 398.4C196.4 410.1 225.7 416 256 416S315.6 410.1 343.2 398.4C369.9 387.1 393.8 371 414.4 350.4S451.1 305.9 462.4 279.2C474.1 251.6 480 222.3 480 192z M256 173.3L166.6 262.6L121.4 217.4L256 82.7L390.6 217.4L345.4000000000001 262.6z" />
    <glyph glyph-name="arrow-circle-left"
      unicode="&#xF102;"
      horiz-adv-x="512" d=" M256 448C114.6 448 0 333.4 0 192S114.6 -64 256 -64S512 50.6 512 192S397.4 448 256 448zM480 192C480 161.7 474.1 132.4 462.4 104.8C451.1 78.1 435 54.2 414.4 33.6S369.9 -3.1 343.2 -14.4C315.6 -26.1 286.3 -32 256 -32S196.4 -26.1 168.8 -14.4C142.1 -3.1 118.2 13 97.6 33.6S60.9 78.1 49.6 104.8C37.9 132.4 32 161.7 32 192S37.9 251.6 49.6 279.2C60.9 305.9 77 329.8 97.6 350.4S142.1 387.1 168.8 398.4C196.4 410.1 225.7 416 256 416S315.6 410.1 343.2 398.4C369.9 387.1 393.8 371 414.4 350.4S451.1 305.9 462.4 279.2C474.1 251.6 480 222.3 480 192z M281.4 326.6L146.7 192L281.4 57.4L326.6 102.6L237.3 192L326.6 281.4z" />
    <glyph glyph-name="arrow-circle-right"
      unicode="&#xF103;"
      horiz-adv-x="512" d=" M256 448C114.6 448 0 333.4 0 192S114.6 -64 256 -64S512 50.6 512 192S397.4 448 256 448zM480 192C480 161.7 474.1 132.4 462.4 104.8C451.1 78.1 435 54.2 414.4 33.6S369.9 -3.1 343.2 -14.4C315.6 -26.1 286.3 -32 256 -32S196.4 -26.1 168.8 -14.4C142.1 -3.1 118.2 13 97.6 33.6S60.9 78.1 49.6 104.8C37.9 132.4 32 161.7 32 192S37.9 251.6 49.6 279.2C60.9 305.9 77 329.8 97.6 350.4S142.1 387.1 168.8 398.4C196.4 410.1 225.7 416 256 416S315.6 410.1 343.2 398.4C369.9 387.1 393.8 371 414.4 350.4S451.1 305.9 462.4 279.2C474.1 251.6 480 222.3 480 192z M185.4 281.4L274.7 192L185.4 102.6L230.6 57.4L365.3 192L230.6 326.6z" />
    <glyph glyph-name="arrow-circle-up"
      unicode="&#xF104;"
      horiz-adv-x="512" d=" M256 448C114.6 448 0 333.4 0 192S114.6 -64 256 -64S512 50.6 512 192S397.4 448 256 448zM480 192C480 161.7 474.1 132.4 462.4 104.8C451.1 78.1 435 54.2 414.4 33.6S369.9 -3.1 343.2 -14.4C315.6 -26.1 286.3 -32 256 -32S196.4 -26.1 168.8 -14.4C142.1 -3.1 118.2 13 97.6 33.6S60.9 78.1 49.6 104.8C37.9 132.4 32 161.7 32 192S37.9 251.6 49.6 279.2C60.9 305.9 77 329.8 97.6 350.4S142.1 387.1 168.8 398.4C196.4 410.1 225.7 416 256 416S315.6 410.1 343.2 398.4C369.9 387.1 393.8 371 414.4 350.4S451.1 305.9 462.4 279.2C474.1 251.6 480 222.3 480 192z M121.4 166.6L166.6 121.4L256 210.7000000000001L345.4 121.4L390.6 166.6L256 301.3z" />
    <glyph glyph-name="arrow-down-alias"
      unicode="&#xF105;"
      horiz-adv-x="512" d=" M240 -45.3L470.6 185.4L425.4000000000001 230.6L272 77.3V416H208V77.3L54.6 230.6L9.4 185.4z" />
    <glyph glyph-name="arrow-down"
      unicode="&#xF106;"
      horiz-adv-x="512" d=" M457.4 310.6L256 109.3L54.6 310.6L9.4 265.4L256 18.7L502.6 265.4z" />
    <glyph glyph-name="arrow-left-alias"
      unicode="&#xF107;"
      horiz-adv-x="512" d=" M265.4 438.6L18.7 192L265.4 -54.6L310.6 -9.4L141.3 160H480V224H141.3L310.6 393.4z" />
    <glyph glyph-name="arrow-left"
      unicode="&#xF108;"
      horiz-adv-x="512" d=" M406.6 393.4L361.4 438.6L114.7 192L361.4 -54.6L406.6 -9.4L205.3 192z" />
    <glyph glyph-name="arrow-right-alias"
      unicode="&#xF109;"
      horiz-adv-x="512" d=" M246.6 -54.6L493.3 192L246.6 438.6L201.4 393.4L370.7 224H32V160H370.7L201.4 -9.4z" />
    <glyph glyph-name="arrow-right"
      unicode="&#xF10A;"
      horiz-adv-x="512" d=" M182.6 438.6L137.4 393.4L338.7 192L137.4 -9.4L182.6 -54.6L429.3 192z" />
    <glyph glyph-name="arrow-up-alias"
      unicode="&#xF10B;"
      horiz-adv-x="512" d=" M54.6 153.4L208 306.7V-32H272V306.7L425.4 153.4L470.6 198.6L240 429.3L9.4 198.6z" />
    <glyph glyph-name="arrow-up"
      unicode="&#xF10C;"
      horiz-adv-x="512" d=" M256 333.3L9.4 86.6L54.6 41.4L256 242.7L457.4 41.4L502.6 86.6z" />
    <glyph glyph-name="bell"
      unicode="&#xF10D;"
      horiz-adv-x="512" d=" M416 96V256C416 333.4 361 398 288 412.8V416C288 433.7 273.7 448 256 448S224 433.7 224 416V412.8C151 398 96 333.4 96 256V96L32 32H480L416 96zM352 96H160V256C160 308.9 203.1 352 256 352S352 308.9 352 256V96zM256 -64C291.3 -64 320 -35.3 320 0H192C192 -35.3 220.7 -64 256 -64z" />
    <glyph glyph-name="bin"
      unicode="&#xF10E;"
      horiz-adv-x="512" d=" M208 32C216.8 32 224 39.2 224 48V240C224 248.8 216.8 256 208 256S192 248.8 192 240V48C192 39.2 199.2 32 208 32zM304 32C312.8 32 320 39.2 320 48V240C320 248.8 312.8 256 304 256S288 248.8 288 240V48C288 39.2 295.2 32 304 32z M480 352H384V416C384 433.7 369.7 448 352 448H160C142.3 448 128 433.7 128 416V352H32C14.3 352 0 337.7 0 320V288H64V-32C64 -49.7 78.3 -64 96 -64H416C433.7 -64 448 -49.7 448 -32V288H512V320C512 337.7 497.7 352 480 352zM160 416H352V352H160V416zM384 0H128V288H384V0z" />
    <glyph glyph-name="calendar"
      unicode="&#xF10F;"
      horiz-adv-x="512" d=" M480 384H448V352V416C448 433.7 433.7 448 416 448H384C366.3 448 352 433.7 352 416V384H192V416C192 433.7 177.7 448 160 448H128C110.3 448 96 433.7 96 416V384H64C46.3 384 32 369.7 32 352V-32C32 -49.7 46.3 -64 64 -64H480C497.7 -64 512 -49.7 512 -32V352C512 369.7 497.7 384 480 384zM384 416H416V352H384V416zM128 416H160V352H128V416zM288 64H352V0H288V64zM256 0H192V64H256V0zM288 96V160H352V96H288zM256 96H192V160H256V96zM160 96H96V160H160V96zM96 64H160V0H96V64zM448 0H384V64H448V0zM448 96H384V160H448V96zM448 192H384V256H352V192H288V256H256V192H192V256H160V192H96V256H448V192z" />
    <glyph glyph-name="cart"
      unicode="&#xF110;"
      horiz-adv-x="512" d=" M474 306.7C468 315 458.3 320 448 320H128V384C128 401.7 113.7 416 96 416H32C14.3 416 0 401.7 0 384S14.3 352 32 352H64V96C64 78.3 78.3 64 96 64H384C397.8 64 410 72.8 414.4 85.9L478.4 277.9C481.6 287.6 480 298.4 474 306.7zM360.9 128H128V256H403.6L360.9000000000001 128z M64 -16C64 -42.5096679918781 85.4903320081219 -64 112 -64C138.5096679918781 -64 160 -42.5096679918781 160 -16C160 10.5096679918781 138.5096679918781 32 112 32C85.4903320081219 32 64 10.5096679918781 64 -16z M320 -16C320 -42.5096679918781 341.4903320081219 -64 368 -64C394.5096679918781 -64 416 -42.5096679918781 416 -16C416 10.5096679918781 394.5096679918781 32 368 32C341.4903320081219 32 320 10.5096679918781 320 -16z" />
    <glyph glyph-name="check"
      unicode="&#xF111;"
      horiz-adv-x="512" d=" M457.4 374.6L192 109.3L54.6 246.6L9.4 201.4L192 18.7L502.6 329.4z" />
    <glyph glyph-name="circle-check"
      unicode="&#xF112;"
      horiz-adv-x="512" d=" M256 448C114.6 448 0 333.4 0 192S114.6 -64 256 -64S512 50.6 512 192S397.4 448 256 448zM414.4 33.6C393.8 13 369.9 -3.1 343.2 -14.4C315.6 -26.1 286.3 -32 256 -32S196.4 -26.1 168.8 -14.4C142.1 -3.1 118.2 13 97.6 33.6S60.9 78.1 49.6 104.8C37.9 132.4 32 161.7 32 192S37.9 251.6 49.6 279.2C60.9 305.9 77 329.8 97.6 350.4S142.1 387.1 168.8 398.4C196.4 410.1 225.7 416 256 416S315.6 410.1 343.2 398.4C369.9 387.1 393.8 371 414.4 350.4S451.1 305.9 462.4 279.2C474.1 251.6 480 222.3 480 192S474.1 132.4 462.4 104.8C451.1 78.1 435 54.2 414.4 33.6z M224 141.3L150.6 214.6L105.4 169.4L224 50.7L406.6 233.4L361.4000000000001 278.6z" />
    <glyph glyph-name="circle-cross"
      unicode="&#xF113;"
      horiz-adv-x="512" d=" M256 448C114.6 448 0 333.4 0 192S114.6 -64 256 -64S512 50.6 512 192S397.4 448 256 448zM480 192C480 161.7 474.1 132.4 462.4 104.8C451.1 78.1 435 54.2 414.4 33.6S369.9 -3.1 343.2 -14.4C315.6 -26.1 286.3 -32 256 -32S196.4 -26.1 168.8 -14.4C142.1 -3.1 118.2 13 97.6 33.6S60.9 78.1 49.6 104.8C37.9 132.4 32 161.7 32 192S37.9 251.6 49.6 279.2C60.9 305.9 77 329.8 97.6 350.4S142.1 387.1 168.8 398.4C196.4 410.1 225.7 416 256 416S315.6 410.1 343.2 398.4C369.9 387.1 393.8 371 414.4 350.4S451.1 305.9 462.4 279.2C474.1 251.6 480 222.3 480 192z M323.9 305.1L256 237.3L188.1 305.1L142.9 259.9000000000001L210.7 192L142.9 124.1L188.1 78.9L256 146.7000000000001L323.9 78.9L369.1 124.1L301.3 192L369.1 259.9000000000001z" />
    <glyph glyph-name="circle-minus"
      unicode="&#xF114;"
      horiz-adv-x="512" d=" M256 448C114.6 448 0 333.4 0 192S114.6 -64 256 -64S512 50.6 512 192S397.4 448 256 448zM480 192C480 161.7 474.1 132.4 462.4 104.8C451.1 78.1 435 54.2 414.4 33.6S369.9 -3.1 343.2 -14.4C315.6 -26.1 286.3 -32 256 -32S196.4 -26.1 168.8 -14.4C142.1 -3.1 118.2 13 97.6 33.6S60.9 78.1 49.6 104.8C37.9 132.4 32 161.7 32 192S37.9 251.6 49.6 279.2C60.9 305.9 77 329.8 97.6 350.4S142.1 387.1 168.8 398.4C196.4 410.1 225.7 416 256 416S315.6 410.1 343.2 398.4C369.9 387.1 393.8 371 414.4 350.4S451.1 305.9 462.4 279.2C474.1 251.6 480 222.3 480 192z M128 224H384V160H128z" />
    <glyph glyph-name="circle-plus"
      unicode="&#xF115;"
      horiz-adv-x="512" d=" M256 448C114.6 448 0 333.4 0 192S114.6 -64 256 -64S512 50.6 512 192S397.4 448 256 448zM480 192C480 161.7 474.1 132.4 462.4 104.8C451.1 78.1 435 54.2 414.4 33.6S369.9 -3.1 343.2 -14.4C315.6 -26.1 286.3 -32 256 -32S196.4 -26.1 168.8 -14.4C142.1 -3.1 118.2 13 97.6 33.6S60.9 78.1 49.6 104.8C37.9 132.4 32 161.7 32 192S37.9 251.6 49.6 279.2C60.9 305.9 77 329.8 97.6 350.4S142.1 387.1 168.8 398.4C196.4 410.1 225.7 416 256 416S315.6 410.1 343.2 398.4C369.9 387.1 393.8 371 414.4 350.4S451.1 305.9 462.4 279.2C474.1 251.6 480 222.3 480 192z M288 320H224V224H128V160H224V64H288V160H384V224H288z" />
    <glyph glyph-name="clock"
      unicode="&#xF116;"
      horiz-adv-x="512" d=" M256 416C132.3 416 32 315.7 32 192S132.3 -32 256 -32S480 68.3 480 192S379.7 416 256 416zM369.1 78.9C338.9 48.6 298.7 32 256 32S173.1 48.6 142.9 78.9C112.6 109.1 96 149.3 96 192S112.6 274.9 142.9 305.1C173.1 335.4 213.3 352 256 352S338.9 335.4 369.1 305.1C399.4 274.9 416 234.7 416 192S399.4 109.1 369.1 78.9z M272 198.6V288C272 296.8 264.8 304 256 304S240 296.8 240 288V192C240 191.5 240 191 240.1 190.5C240.1 190.3 240.2 190 240.2 189.8C240.2 189.5 240.3 189.2 240.3 189C240.4 188.7 240.4 188.5 240.5 188.2C240.6 188 240.6 187.7 240.7 187.5C240.8 187.2 240.9 187 241 186.7C241.1 186.5 241.2 186.2 241.3 186C241.4 185.8 241.5 185.5 241.6 185.3C241.7 185.1 241.8 184.8 241.9 184.6C242 184.4 242.2 184.2000000000001 242.3 183.9C242.4 183.7000000000001 242.6 183.4 242.7 183.2000000000001C242.9 183.0000000000001 243.0000000000001 182.7000000000001 243.2 182.5000000000001C243.3 182.3000000000001 243.5000000000001 182.1000000000001 243.6 181.9C243.9000000000001 181.5000000000001 244.3 181.1 244.7 180.7000000000001L308.7000000000001 116.7000000000001C311.8000000000001 113.6 315.9000000000001 112.0000000000001 320.0000000000001 112.0000000000001S328.2000000000001 113.6000000000001 331.3000000000001 116.7000000000001C337.5000000000001 122.9 337.5000000000001 133.1 331.3000000000001 139.3000000000001L272 198.6z" />
    <glyph glyph-name="cloud"
      unicode="&#xF117;"
      horiz-adv-x="512" d=" M416 222.9V224C416 312.4 344.4 384 256 384C188.6 384 130.9 342.3 107.4 283.3C45.6 267.1 0 210.9 0 144C0 64.5 64.5 0 144 0H400C461.9 0 512 50.1 512 112C512 168.4 470.3 215.1 416 222.9zM400 64H144C99.9 64 64 99.9 64 144C64 180.4 88.5 212.2 123.6 221.4L154.8 229.6L166.8 259.6C173.8 277.2 185.9 292.3 201.6 303.1C217.6 314.2 236.4 320 256 320C308.8 320 351.8 277.1 352 224.3V223.3L351.6 167.4L406.9000000000001 159.5000000000001C418.2000000000001 157.9 428.6 152.2000000000001 436.1 143.5000000000001C441.5 137.3000000000001 447.9000000000001 126.8000000000001 447.9000000000001 111.9C448.0000000000001 85.5000000000001 426.5000000000001 64.0000000000001 400.0000000000001 64.0000000000001z" />
    <glyph glyph-name="cross"
      unicode="&#xF118;"
      horiz-adv-x="512" d=" M120.2 11L256 146.7L391.8 11L437 56.2L301.3 192L437 327.8L391.8 373L256 237.3L120.2 373L75 327.8L210.7 192L75 56.2z" />
    <glyph glyph-name="download"
      unicode="&#xF119;"
      horiz-adv-x="512" d=" M32 32H480V-32H32zM422.6 248.4L377.4000000000001 293.6L288 204.3V416H224V204.3L134.6 293.6L89.4 248.4000000000001L256 81.7z" />
    <glyph glyph-name="exit"
      unicode="&#xF11A;"
      horiz-adv-x="512" d=" M256 32H96V352H256V288H320V416H32V-32H320V96H256z M377.6 326.6L332.4000000000001 281.4L389.7000000000001 224H160V160H389.7L332.4 102.6L377.6 57.4L512.3 192z" />
    <glyph glyph-name="eye"
      unicode="&#xF11B;"
      horiz-adv-x="512" d=" M256 352C123.5 352 0 192 0 192S123.5 32 256 32S512 192 512 192S388.5 352 256 352zM390.7 159.4C367.3 139.9 344.4 124.5 322.5 113.8C298.3 102 276 96 256 96S213.7 102 189.6 113.8C167.7 124.5 144.8 139.9 121.4 159.4C108 170.6 96 181.8 85.9 192C96 202.2 108 213.4 121.3 224.6C144.7 244.1 167.6 259.5 189.5 270.2C213.7 282 236 288 256 288S298.3 282 322.4 270.2C344.3 259.5 367.2 244.1 390.6 224.6C403.9 213.5 415.9 202.2 426 192C416 181.8 404 170.6 390.7 159.4z M192 192C192 156.6537760108292 220.6537760108292 128 256 128C291.3462239891708 128 320 156.6537760108292 320 192C320 227.3462239891708 291.3462239891708 256 256 256C220.6537760108292 256 192 227.3462239891708 192 192z" />
    <glyph glyph-name="facebook-square"
      unicode="&#xF11C;"
      horiz-adv-x="512" d=" M416 416H96C60.7 416 32 387.3 32 352V32C32 -3.3 60.7 -32 96 -32H416C451.3 -32 480 -3.3 480 32V352C480 387.3 451.3 416 416 416zM448 32C448 14.4 433.6 0 416 0H320V140H384L398 210H320V253.6C320 273.3 330.6 288 358.9 288H392V348C385.8 348.8 364.9 352 340 352C288 352 256 319.3 256 261.1V210H192V140H256V0H96C78.4 0 64 14.4 64 32V352C64 369.6 78.4 384 96 384H416C433.6 384 448 369.6 448 352V32z" />
    <glyph glyph-name="facebook"
      unicode="&#xF11D;"
      horiz-adv-x="512" d=" M270 302C270 325 279.7 340 312.7 340H352.1L352 410C344.7 411 319 416 290 416C229.4 416 192 377.9 192 310V250H120V170H192V-32H270V170H338L352 250H270V302z" />
    <glyph glyph-name="file"
      unicode="&#xF11E;"
      horiz-adv-x="512" d=" M256 416H64V-32H448V224L256 416zM256 325.5L357.5 224H256V325.5zM384 32H128V352H192V160H384V32z" />
    <glyph glyph-name="floppy"
      unicode="&#xF11F;"
      horiz-adv-x="512" d=" M256 192C220.7 192 192 163.3 192 128S220.7 64 256 64S320 92.7 320 128S291.3 192 256 192zM256 96C238.4 96 224 110.4 224 128S238.4 160 256 160S288 145.6 288 128S273.6 96 256 96z M470.6 297.4L361.4 406.6C355.4 412.6 347.3 416 338.8 416H64C46.3 416 32 401.7 32 384V0C32 -17.7 46.3 -32 64 -32H448C465.7 -32 480 -17.7 480 0V274.7C480 283.2 476.6 291.4 470.6 297.4zM160 352H256V288H160V352zM416 32H96V352H128V256H288V352H325.5L416 261.5V32z" />
    <glyph glyph-name="folder"
      unicode="&#xF120;"
      horiz-adv-x="512" d=" M448 352H320L256 416H64C28.7 416 0 387.3 0 352V32C0 -3.3 28.7 -32 64 -32H448C483.3 -32 512 -3.3 512 32V288C512 323.3 483.3 352 448 352zM448 32H64V288H448V32z" />
    <glyph glyph-name="gear"
      unicode="&#xF121;"
      horiz-adv-x="512" d=" M480 160V224H412.8C408.7 244.4 400.6 263.4 389.5 280.2L437 327.7L391.8 373L344.3 325.5C327.5 336.6 308.5 344.7 288.1 348.8V416H224.1V348.8C203.7 344.7 184.7 336.6 167.9 325.5L120.2 373L75 327.8L122.5 280.3C111.4 263.5 103.3 244.5 99.2 224.1H32V160.1H99.2C103.3 139.7000000000001 111.4 120.7000000000001 122.5 103.9L75 56.2L120.3 10.9L167.8 58.4C184.6 47.3 203.6 39.2 224 35.1V-32H288V35.2C308.4 39.3 327.4 47.4 344.2 58.5L391.7 11L437 56.3L389.5 103.8C400.6 120.6 408.7 139.6 412.8 160H480zM323.9 124.1C305.8 106 281.6 96 256 96S206.2 106 188.1 124.1S160 166.4 160 192S170 241.8 188.1 259.9C206.2 278 230.4 288 256 288S305.8 278 323.9 259.9C342 241.8 352 217.6 352 192S342 142.2 323.9 124.1z" />
    <glyph glyph-name="globe"
      unicode="&#xF122;"
      horiz-adv-x="512" d=" M256 448C114.6 448 0 333.4 0 192S114.6 -64 256 -64S512 50.6 512 192S397.4 448 256 448zM391.8 327.8C403.8 315.8 414.1 302.4 422.4000000000001 288H345C340.2 319.4 333.2 347.7 324.4 371.5C349.4 362 372.3 347.2 391.8 327.8zM218.1 361.8C234.7 406 251.4 416 256 416S277.3 406 293.9 361.8C301.8 340.6 308.1 315.8 312.6 288H199.4C203.9 315.8 210.1 340.6 218.1 361.8zM120.2 327.8C139.7 347.3 162.6 362 187.5 371.5C178.7 347.7 171.7 319.4 166.9 288H89.6C98 302.4 108.2 315.7 120.2 327.8zM74.9 128C67.7 148.3 64 169.9 64 192S67.7 235.7 74.9 256H163C161 235.5 160 214.1 160 192S161.1 148.5 163 128H74.9zM120.2 56.2C108.2 68.2 97.9 81.6 89.6 96H167C171.8 64.6 178.8 36.3 187.6 12.5C162.6 22 139.7 36.8 120.2 56.2zM293.9 22.2C277.3 -22 260.6 -32 256 -32S234.7 -22 218.1 22.2C210.2 43.4 203.9 68.2 199.4 96H312.7C308.1 68.2 301.9 43.4 293.9 22.2zM316.8 128H195.2C193.1 148.7 192 170.1 192 192S193.1 235.3 195.2 256H316.8C318.9 235.3 320 213.9 320 192S318.8999999999999 148.7 316.8 128zM391.8 56.2C372.3 36.7 349.4000000000001 22 324.5 12.5C333.3 36.3 340.3 64.6 345.1 96H422.4000000000001C414.0000000000001 81.6 403.8 68.3 391.8 56.2zM349 128C351 148.5 352 169.9 352 192S350.9 235.5 349 256H437.1C444.3 235.7 448 214.1 448 192S444.3 148.3 437.1 128H349z" />
    <glyph glyph-name="hamburger"
      unicode="&#xF123;"
      horiz-adv-x="512" d=" M96 352H448V288H96zM96 96H448V32H96zM96 224H448V160H96z" />
    <glyph glyph-name="heart"
      unicode="&#xF124;"
      horiz-adv-x="512" d=" M352 352C369.3 352 384.9 345.5 397.2 333.1C403.1 327.2 407.7 320.3 411 312.7C414.3 304.9 416 296.6 416 288C416 268.8 409.5 245.7 396.6 219.5C381.6 189.1 358.4000000000001 155.2 327.6 118.8C300.8 87.1 273.8 60.3 256 43.4C238.2 60.3 211.3 87.1 184.4 118.8C153.6 155.1999999999999 130.4 189.1 115.4 219.5C102.5 245.7 96 268.8 96 288C96 296.3 97.7 304.5 101 312.3C104.3 320 108.9 326.9 114.9 332.9C120.9 338.9 127.7 343.6 135.4 346.9C143.2 350.3 151.5 352 160.1 352C177.2 352 193.3 345.3 205.4 333.3C206.4 332.3 207.3 331.3 208.2 330.3L256.1 276.1L304 330.3C304.8999999999999 331.3 305.8 332.3 306.8 333.3C318.8 345.3 334.9 352 352 352M352 416C317.8 416 285.7 402.7 261.5 378.5C259.6 376.6 257.8 374.7 256 372.7C254.2 374.7 252.4 376.6 250.5 378.5C226.3 402.7 194.2 416 160 416C142.7 416 125.8 412.5 109.9 405.6C94.7 399 81.1 389.7 69.3 377.9C57.6 366.1 48.5 352.5 42 337.3C35.4 321.6 32 305 32 288C32 229.5 66.8 158.6 135.6 77.5C184.7 19.5 233.1 -22.4 235.1 -24.2L256 -42.2L276.9 -24.2C278.9 -22.4 327.4 19.5 376.4 77.5C445.2 158.6 480 229.5 480 288C480 305.2 476.6 321.9 469.9 337.6C463.5 352.8 454.2 366.5 442.5 378.2C418.3 402.6 386.2 416 352 416z" />
    <glyph glyph-name="instagram"
      unicode="&#xF125;"
      horiz-adv-x="512" d=" M478.7 284.4C477.6 308.2000000000001 473.8 324.5 468.3 338.8C462.6 353.5 454.9 366 442.5 378.5C430 391 417.6 398.6 402.8 404.3C388.6 409.8 372.3 413.6 348.4000000000001 414.7C324.5000000000001 415.7 316.8 416 256 416C195.2 416 187.5 415.7 163.6 414.7C139.8 413.6 123.5 409.8 109.2 404.3C94.5 398.5 82 390.9 69.6 378.4C57.1 366 49.5 353.5 43.8 338.7C38.3 324.5 34.5 308.2 33.4 284.3C32.3 260.5 32 252.8 32 192S32.3 123.5 33.3 99.6C34.4 75.8 38.2 59.5 43.7 45.2C49.4 30.5000000000001 57.1 18.0000000000001 69.5 5.5000000000001C82 -6.9999999999999 94.4 -14.6 109.2 -20.3C123.4 -25.8 139.7 -29.6 163.6 -30.6999999999999C187.5 -31.8 195.1 -31.9999999999999 256 -31.9999999999999C316.8 -31.9999999999999 324.5 -31.6999999999999 348.4 -30.6999999999999C372.2 -29.5999999999999 388.5 -25.8 402.8 -20.3C417.5 -14.6 430 -6.9 442.5 5.5000000000001C454.9999999999999 18.0000000000001 462.6 30.4 468.3 45.2C473.8 59.4 477.6 75.7000000000001 478.6999999999999 99.6C479.8 123.5 479.9999999999999 131.1 479.9999999999999 192C479.9999999999999 252.8 479.6999999999999 260.5 478.6999999999999 284.4000000000001zM446.7 101.1C445.6 78 441.7 65.3 438.4 56.9C433.9 45.4 428.4 36.9 419.8 28.3C411.2 19.7 402.6 14.1 391.2 9.7C382.7 6.4 370 2.5 347 1.4C323.2 0.3 316.1 0.1 256.0999999999999 0.1S188.9999999999999 0.3 165.1999999999999 1.4C142.0999999999999 2.5 129.3999999999999 6.4 120.9999999999999 9.7C109.4999999999999 14.2 100.9999999999999 19.7 92.3999999999999 28.3C83.7999999999999 36.9 78.1999999999999 45.5 73.7999999999999 56.9C70.4999999999999 65.4 66.5999999999999 78.1 65.4999999999999 101.1C64.2 124.9 64 132 64 192C64 252 64.2 259.1 65.3 282.9C66.4 306 70.3 318.7 73.6 327.1C78.1 338.6 83.6 347.1 92.2 355.7000000000001C100.8 364.3 109.4 369.9000000000001 120.8 374.3C129.3 377.6 142 381.5 165 382.6C188.9 383.8 196 384 256 384S323.1 383.8 346.9 382.7C370 381.6 382.7 377.7 391.1 374.4C402.6 369.9 411.1 364.4 419.7 355.8C428.3 347.2000000000001 433.9 338.6 438.3 327.2000000000001C441.6 318.7000000000001 445.5 306 446.6 283C447.7000000000001 259.2 447.9000000000001 252.1 447.9000000000001 192.1C448.0000000000001 132 447.8 124.9 446.7000000000001 101.1z M256 320C185.3 320 128 262.7 128 192S185.3 64 256 64S384 121.3 384 192S326.7 320 256 320zM256 96C203.1 96 160 139.1 160 192S203.1 288 256 288S352 244.9 352 192S308.9 96 256 96z M352 320C352 302.3268880054146 366.3268880054146 288 384 288C401.6731119945854 288 416 302.3268880054146 416 320C416 337.6731119945854 401.6731119945854 352 384 352C366.3268880054146 352 352 337.6731119945854 352 320z" />
    <glyph glyph-name="laptop"
      unicode="&#xF126;"
      horiz-adv-x="512" d=" M416 64C451.3 64 480 92.7 480 128V320C480 355.3 451.3 384 416 384H96C60.7 384 32 355.3 32 320V128C32 92.7 60.7 64 96 64H0C0 28.7 28.7 0 64 0H448C483.3 0 512 28.7 512 64H416zM96 320H416V128H96V320zM320 64C320 46.3 305.7 32 288 32H224C206.3 32 192 46.3 192 64H320z" />
    <glyph glyph-name="like"
      unicode="&#xF127;"
      horiz-adv-x="512" d=" M0 224H96V-64H0zM448 256H352L375.2 348.8C380.7 370.6 374.3 393.7 358.4 409.6L332.2 435.8C329.1 438.9 325 440.5 320.9 440.5C316.4 440.5 311.9 438.6 308.7 434.9L143.4 242C133.5 230.4 128 215.6 128 200.3V0C128 -35.3 156.7 -64 192 -64H404.7C430.9 -64 454.4 -48.1 464.1 -23.8L512 96V192C512 227.3 483.3 256 448 256zM448 108.3L404.7 0H192V200.3L305.1 332.2000000000001L289.9000000000001 271.4000000000001L270 192H448V108.3z" />
    <glyph glyph-name="lock-open"
      unicode="&#xF128;"
      horiz-adv-x="512" d=" M160 224V256C160 308.9 203.1 352 256 352C282.5 352 306.5 341.2 323.9 323.9L369.2 369.2C340.2 398.2 300.2 416.1 256.1 416.1C167.7 416.1 96.1 344.5 96.1 256.1V224.1H64V-31.9H448V224H160zM288 32H224L245.3 97.9C232.9 102.3 224 114.1 224 128C224 145.7 238.3 160 256 160S288 145.7 288 128C288 113.6 278.5 101.5 265.5 97.4L288 32z" />
    <glyph glyph-name="lock"
      unicode="&#xF129;"
      horiz-adv-x="512" d=" M416 224V256C416 344.4 344.4 416 256 416S96 344.4 96 256V224H64V-32H448V224H416zM288 32H224L245.3 97.9C232.9 102.3 224 114.1 224 128C224 145.7 238.3 160 256 160S288 145.7 288 128C288 113.6 278.5 101.5 265.5 97.4L288 32zM352 224H160V256C160 308.9 203.1 352 256 352S352 308.9 352 256V224z" />
    <glyph glyph-name="mac"
      unicode="&#xF12A;"
      horiz-adv-x="512" d=" M448 448H64C28.7 448 0 419.3 0 384V96C0 60.7 28.7 32 64 32H192L160 -32V-64H352V-32L320 32H448C483.3 32 512 60.7 512 96V384C512 419.3 483.3 448 448 448zM448 128H64V384H448V128z" />
    <glyph glyph-name="mail"
      unicode="&#xF12B;"
      horiz-adv-x="512" d=" M480 384H32C14.3 384 0 369.7 0 352V32C0 14.3 14.3 0 32 0H480C497.7 0 512 14.3 512 32V352C512 369.7 497.7 384 480 384zM389.7 320L256 186.5L122.3 320H389.7zM448 64H64V287.8L233.4 118.6C239.6 112.4 247.8 109.2000000000001 256 109.2000000000001C264.2 109.2000000000001 272.4 112.3000000000001 278.6 118.6L448 287.8V64z" />
    <glyph glyph-name="marker"
      unicode="&#xF12C;"
      horiz-adv-x="512" d=" M256 320C220.7 320 192 291.3 192 256S220.7 192 256 192S320 220.7 320 256S291.3 320 256 320zM256 224C238.4 224 224 238.4 224 256S238.4 288 256 288S288 273.6 288 256S273.6 224 256 224z M256 416C167.6 416 96 344.4 96 256C96 128.3 256 -32 256 -32S416 127.3 416 256C416 344.4 344.4 416 256 416zM285 102.5C275.2 88.7 265.3 75.9 256.1 64.5C246.8 75.9 236.9000000000001 88.9 227.0000000000001 102.8C183.8 163.7 160 218.1 160 256C160 308.9 203.1 352 256 352S352 308.9 352 256C352 217.7 328.2 163.2 285 102.5z" />
    <glyph glyph-name="message"
      unicode="&#xF12D;"
      horiz-adv-x="512" d=" M448 416H64C28.7 416 0 387.3 0 352V128C0 92.7 28.7 64 64 64H352L512 -63.7V352C512 387.3 483.3 416 448 416zM448 69.3L391.9 114L374.4 128H64V352H448V69.3z" />
    <glyph glyph-name="messages"
      unicode="&#xF12E;"
      horiz-adv-x="512" d=" M460 320H416V396.3C416 425 392.7 448.3 364 448.3H52C23.3 448.3 0 425 0 396.3V64.3L96 135.2000000000001V84C96 55.3 119.3 32 148 32L382 31.8L512 -64V268C512 296.7 488.7 320 460 320zM129.9 224.1H108.9L92 211.6L64 190.9V384.3H352V224.3L129.9 224.1zM448 62.7L420 83.4L403.1 95.9H382.1L160 96V160.3H364C392.7 160.3 416 183.6 416 212.3V256H448V62.7z" />
    <glyph glyph-name="minus"
      unicode="&#xF12F;"
      horiz-adv-x="512" d=" M32 224H480V160H32z" />
    <glyph glyph-name="move"
      unicode="&#xF130;"
      horiz-adv-x="512" d=" M512 192L416 288V224H288V352H352L256 448L160 352H224V224H96V288L0 192L96 96V160H224V32H160L256 -64L352 32H288V160H416V96z" />
    <glyph glyph-name="pause-circle"
      unicode="&#xF131;"
      horiz-adv-x="512" d=" M256 448C114.6 448 0 333.4 0 192S114.6 -64 256 -64S512 50.6 512 192S397.4 448 256 448zM414.4 33.6C393.8 13 369.9 -3.1 343.2 -14.4C315.6 -26.1 286.3 -32 256 -32S196.4 -26.1 168.8 -14.4C142.1 -3.1 118.2 13 97.6 33.6S60.9 78.1 49.6 104.8C37.9 132.4 32 161.7 32 192S37.9 251.6 49.6 279.2C60.9 305.9 77 329.8 97.6 350.4S142.1 387.1 168.8 398.4C196.4 410.1 225.7 416 256 416S315.6 410.1 343.2 398.4C369.9 387.1 393.8 371 414.4 350.4S451.1 305.9 462.4 279.2C474.1 251.6 480 222.3 480 192S474.1 132.4 462.4 104.8C451.1 78.1 435 54.2 414.4 33.6z M160 288H224V96H160zM288 288H352V96H288z" />
    <glyph glyph-name="pause"
      unicode="&#xF132;"
      horiz-adv-x="512" d=" M160 352H224V32H160zM288 352H352V32H288z" />
    <glyph glyph-name="pencil"
      unicode="&#xF133;"
      horiz-adv-x="512" d=" M32 96V-32H160L384 192L256 320L32 96zM293.5 192L133.5 32H96V69.5L256 229.5L293.5 192zM288 351.9V352zM448 384C430.1 401.8 408.6 416 384 416C364.5 416 343 407 320 384L288 352L416 224L448 256C500.5 308.5 480.1 352.1 448 384z" />
    <glyph glyph-name="phone"
      unicode="&#xF134;"
      horiz-adv-x="512" d=" M465.8 105.3L402.3 147.9C391.5 155.1 377.5 155.1 366.7 147.9L304.3 106.3C252.4 141.9 206.5 187.7000000000001 170.8 239.5L211.8 302C218.8 312.7 218.8 326.6 211.7 337.3L169 401.7C163.1 410.6 153.1 416 142.4 416H65.2C46.7 416 31.9 400.3 33.3 381.8C49.9 161.7 225.6 -14.1 445.8 -30.7C464.3 -32.1 480 -17.3 480 1.2V78.7C480 89.4 474.7 99.3 465.8 105.3z" />
    <glyph glyph-name="pin"
      unicode="&#xF135;"
      horiz-adv-x="512" d=" M352 224V384H384V448H128V384H160V224L96 192V128H224V-64H288V128H416V192L352 224zM288 224V192H224V384H288V224z" />
    <glyph glyph-name="play-circle"
      unicode="&#xF136;"
      horiz-adv-x="512" d=" M256 448C114.6 448 0 333.4 0 192S114.6 -64 256 -64S512 50.6 512 192S397.4 448 256 448zM414.4 33.6C393.8 13 369.9 -3.1 343.2 -14.4C315.6 -26.1 286.3 -32 256 -32S196.4 -26.1 168.8 -14.4C142.1 -3.1 118.2 13 97.6 33.6S60.9 78.1 49.6 104.8C37.9 132.4 32 161.7 32 192S37.9 251.6 49.6 279.2C60.9 305.9 77 329.8 97.6 350.4S142.1 387.1 168.8 398.4C196.4 410.1 225.7 416 256 416S315.6 410.1 343.2 398.4C369.9 387.1 393.8 371 414.4 350.4S451.1 305.9 462.4 279.2C474.1 251.6 480 222.3 480 192S474.1 132.4 462.4 104.8C451.1 78.1 435 54.2 414.4 33.6z M192 96L320 192L192 288z" />
    <glyph glyph-name="play"
      unicode="&#xF137;"
      horiz-adv-x="512" d=" M96 416V-32L416 192L96 416zM160 293.1L304.4 192L160 90.9V293.1z" />
    <glyph glyph-name="plus"
      unicode="&#xF138;"
      horiz-adv-x="512" d=" M480 224H288V416H224V224H32V160H224V-32H288V160H480z" />
    <glyph glyph-name="search"
      unicode="&#xF139;"
      horiz-adv-x="512" d=" M502.6 -9.4L376 117.3C401.2 151.7 416 194.1 416 240C416 354.9 322.9 448 208 448S0 354.9 0 240S93.1 32 208 32C253.9 32 296.3 46.9 330.7 72L457.4 -54.7L502.6 -9.4zM106.2 138.2C79 165.4 64 201.5 64 240S79 314.6 106.2 341.8C133.4 369 169.5 384 208 384S282.6 369 309.8 341.8C337 314.6 352 278.5 352 240S337 165.4 309.8 138.2C282.6 111 246.5 96 208 96S133.4 111 106.2 138.2z" />
    <glyph glyph-name="share"
      unicode="&#xF13A;"
      horiz-adv-x="512" d=" M384 160C358.1 160 334.6 149.8 317.4 133.1L223.3 180.1C223.8 184 224 187.9 224 192C224 196.1 223.7 200.1 223.3 204L317.2 251.1C334.4 234.3 358 224 384 224C437 224 480 267 480 320S437 416 384 416S288 373 288 320C288 316.1 288.2 312.2 288.7 308.5L194.5 261.2C177.3 277.8 153.8 288 128 288C75 288 32 245 32 192S75 96 128 96C153.9 96 177.4 106.2 194.6 122.9L288.7 75.9C288.2 72 288 68.1 288 64C288 11 331 -32 384 -32S480 11 480 64S437 160 384 160zM384 352C401.6 352 416 337.6 416 320S401.6 288 384 288S352 302.4 352 320S366.4 352 384 352zM128 160C110.4 160 96 174.4 96 192S110.4 224 128 224S160 209.6 160 192S145.6 160 128 160zM384 32C366.4 32 352 46.4 352 64S366.4 96 384 96S416 81.6 416 64S401.6 32 384 32z" />
    <glyph glyph-name="shopping-bag"
      unicode="&#xF13B;"
      horiz-adv-x="512" d=" M473.7 37.8L448 320H384C383.6 383.8 326.4 415.3 256 415.3S128.4 383.8 128 320H64L38.3 37.8C34.9 0.3 64.4 -32 102 -32H409.8C447.6 -32 477.1 0.3 473.7 37.8zM183.7 365C200.8 376.8 226.5 383.2 256 383.2C285.6 383.2 311.3 376.7 328.3 365C344 354.2 351.7 339.4 351.9000000000001 320H160C160.2 339.5 167.9 354.2 183.7 365zM102.1 32L122.5 256H389.6L410 32H102.1z" />
    <glyph glyph-name="smartphone"
      unicode="&#xF13C;"
      horiz-adv-x="512" d=" M352 448H160C124.7 448 96 419.3 96 384V32C96 -3.3 124.7 -32 160 -32H352C387.3 -32 416 -3.3 416 32V384C416 419.3 387.3 448 352 448zM272 0H240C231.2 0 224 7.2 224 16S231.2 32 240 32H272C280.8 32 288 24.8 288 16S280.8 0 272 0zM352 64H160V384H352V64z" />
    <glyph glyph-name="smartwatch"
      unicode="&#xF13D;"
      horiz-adv-x="512" d=" M432 256H416V288C416 323.3 387.3 352 352 352V448H160V352C124.7 352 96 323.3 96 288V96C96 60.7 124.7 32 160 32V-64H352V32C387.3 32 416 60.7 416 96V192H432C440.8 192 448 199.2 448 208V240C448 248.8 440.8 256 432 256zM352 96H160V288H352V96z" />
    <glyph glyph-name="speedometer"
      unicode="&#xF13E;"
      horiz-adv-x="512" d=" M64 384L197.5 160C222.5 135 263 135 288 160S313 225.5 288 250.5L64 384z M437 373C388.7 421.4 324.4 448 256 448C210.9 448 167.5 436.4 129.4 414.6L177 367C201.1 377.9 227.8 384 256 384C361.9 384 448 297.9 448 192C448 140 427.5 91.3 390.3 54.9C377.7 42.5 377.5 22.3 389.8 9.6C396.1 3.2 404.4000000000001 -1e-13 412.7 -1e-13C420.8 -1e-13 428.9 2.9999999999999 435.1 9.1C459.2 32.7 478.1 60.3 491.3 91.1C505 123.1 512 157 512 192C512 260.4 485.4 324.7 437 373zM64 192C64 220.1 70.1 246.9 81 271L33.4 318.6C11.6 280.5 0 237.1 0 192C0 157 7 123.1 20.7 91.1C33.9 60.3 52.8 32.7 76.9 9.1C89.5 -3.3 109.8 -3.1 122.2 9.6C134.6 22.2 134.4 42.5 121.7 54.9C84.5 91.3 64 140 64 192z" />
    <glyph glyph-name="star"
      unicode="&#xF13F;"
      horiz-adv-x="512" d=" M480 244.9L325.2 268.5L256 416L186.8 268.5L32 244.9L144 130.1L117.6 -32L256 44.5L394.4 -32L368 130.1L480 244.9000000000001zM322.2 174.8L299.6 151.7L304.8 119.8L310 87.8L287 100.5L256 117.6L225 100.5L201.9 87.7L207.0999999999999 119.7L212.2999999999999 151.6L189.6999999999999 174.7L164.6999999999999 200.3L196.3999999999999 205.1L230.2 210.3L244.7 241.2L256 265.2L267.3 241.2L281.8 210.3L315.6 205.1L347.3 200.3L322.2 174.8z" />
    <glyph glyph-name="tablet"
      unicode="&#xF140;"
      horiz-adv-x="512" d=" M416 448H96C60.7 448 32 419.3 32 384V0C32 -35.3 60.7 -64 96 -64H416C451.3 -64 480 -35.3 480 0V384C480 419.3 451.3 448 416 448zM272 -32H240C231.2 -32 224 -24.8 224 -16S231.2 0 240 0H272C280.8 0 288 -7.2 288 -16S280.8 -32 272 -32zM416 32H96V384H416V32z" />
    <glyph glyph-name="target"
      unicode="&#xF141;"
      horiz-adv-x="512" d=" M480 224H445.3C431.8 304.4 368.4 367.8 288 381.3V416C288 433.7 273.7 448 256 448S224 433.7 224 416V381.3C143.6 367.8 80.2 304.4 66.7 224H32C14.3 224 0 209.7 0 192S14.3 160 32 160H66.7C80.2 79.6 143.6 16.2 224 2.7V-32C224 -49.7 238.3 -64 256 -64S288 -49.7 288 -32V2.7C368.4 16.2 431.8 79.6 445.3 160H480C497.7 160 512 174.3 512 192S497.7 224 480 224zM369.1 78.9C346.6 56.4 318.5 41.4 288 35.2V64C288 81.7 273.7 96 256 96S224 81.7 224 64V35.2C193.5 41.4 165.4 56.3 142.9 78.9C120.4 101.4 105.4 129.5 99.2 160H128C145.7 160 160 174.3 160 192S145.7 224 128 224H99.2C105.4 254.5 120.3 282.6 142.9 305.1C165.4 327.6 193.5 342.6 224 348.8V320C224 302.3 238.3 288 256 288S288 302.3 288 320V348.8C318.5 342.6 346.6 327.7 369.1 305.1C391.6 282.6 406.6 254.5 412.8 224H384C366.3 224 352 209.7 352 192S366.3 160 384 160H412.8C406.6 129.5 391.7 101.4 369.1 78.9z M224 192C224 174.3268880054146 238.3268880054146 160 256 160C273.6731119945854 160 288 174.3268880054146 288 192C288 209.6731119945854 273.6731119945854 224 256 224C238.3268880054146 224 224 209.6731119945854 224 192z" />
    <glyph glyph-name="twitter-square"
      unicode="&#xF142;"
      horiz-adv-x="512" d=" M416 416H96C60.7 416 32 387.3 32 352V32C32 -3.3 60.7 -32 96 -32H416C451.3 -32 480 -3.3 480 32V352C480 387.3 451.3 416 416 416zM448 32C448 14.4 433.6 0 416 0H96C78.4 0 64 14.4 64 32V352C64 369.6 78.4 384 96 384H416C433.6 384 448 369.6 448 352V32z M382.6 296.9C372 290.6 360.2000000000001 286 347.7000000000001 283.6C337.7000000000001 294.3 323.4000000000001 301 307.6 301C277.2000000000001 301 252.6 276.4 252.6 246C252.6 241.7 253.1 237.5 254.0000000000001 233.5C208.3 235.8 167.8 257.7 140.7000000000001 290.9C136.0000000000001 282.8 133.3000000000001 273.3 133.3000000000001 263.3C133.3000000000001 244.2 143 227.4 157.8000000000001 217.5C148.8000000000001 217.8 140.3000000000001 220.3 132.9 224.4V223.7C132.9 197.1 151.9 174.8 177 169.8C172.4 168.5 167.5 167.9 162.5 167.9C159 167.9 155.5 168.3 152.2 168.9C159.2 147.1 179.5 131.2000000000001 203.6 130.7000000000001C184.8 116.0000000000001 161.1 107.2000000000001 135.3 107.2000000000001C130.9 107.2000000000001 126.5 107.5000000000001 122.2 108.0000000000001C146.5 92.4 175.4 83.3000000000001 206.5 83.3000000000001C307.6 83.3000000000001 362.9 167.1000000000001 362.9 239.7000000000001C362.9 242.1000000000001 362.9 244.5000000000001 362.7 246.8000000000001C373.4 254.6000000000001 382.8 264.2000000000001 390.1 275.3000000000001C380.2 270.9000000000001 369.6 268.0000000000001 358.5 266.6000000000001C369.8 273.3000000000001 378.5 284.0000000000001 382.6 296.9000000000001z" />
    <glyph glyph-name="twitter"
      unicode="&#xF143;"
      horiz-adv-x="512" d=" M461 377.5C443.8 367.3 424.7 359.9 404.5 355.9C388.3 373.2 365.1 384 339.5 384C290.3 384 250.4 344.2000000000001 250.4 295.1C250.4 288.1 251.2 281.3 252.7 274.8C178.7 278.5 113.1 313.9 69.2 367.6C61.5 354.5 57.1 339.2 57.1 322.9C57.1 292.1 72.8 264.9 96.7 248.9C82.1 249.3 68.4 253.4 56.4 260V258.9C56.4 215.9 87.1 179.9 127.8 171.8C120.3 169.8 112.5 168.6999999999999 104.3 168.6999999999999C98.6 168.6999999999999 93 169.3 87.6 170.3C98.9 135 131.8 109.3 170.8 108.6C140.3 84.8 101.9 70.6 60.2 70.6C53 70.6 45.9 70.9999999999999 39 71.8C78.4 46.6 125.2 31.9 175.5 31.9C339.3 31.9 428.8 167.3 428.8 284.7C428.8 288.5 428.7 292.4 428.5 296.2C445.9 308.7 461 324.4 472.9 342.2C456.9 335.1 439.8 330.4 421.8 328.2C440.2 339.3 454.4 356.7 460.9999999999999 377.5z" />
    <glyph glyph-name="unlike"
      unicode="&#xF144;"
      horiz-adv-x="512" d=" M0 440.5H96V152.5H0zM464.1 400.2C454.4 424.5 430.8 440.4 404.7000000000001 440.4H192C156.7 440.4 128 411.7 128 376.4V176.1C128 160.8 133.5 146 143.4 134.4L308.7000000000001 -58.5C311.9000000000001 -62.2 316.4000000000001 -64.1 320.9000000000001 -64.1C325.0000000000001 -64.1 329.1 -62.6 332.2000000000001 -59.4L358.4000000000001 -33.2C374.3 -17.3000000000001 380.7000000000001 5.8 375.2000000000001 27.6L352 120.5H448C483.3 120.5 512 149.2 512 184.5V280.5L464.1 400.2zM448 184.5H270L289.9 105L305.1 44.2L192 176.1V376.5H404.7L448 268.1V184.5z" />
    <glyph glyph-name="upload"
      unicode="&#xF145;"
      horiz-adv-x="512" d=" M32 32H480V-32H32zM224 306.7V95H288V306.7L377.4 217.4L422.6 262.6L256 429.3L89.4 262.6L134.6 217.4z" />
    <glyph glyph-name="user"
      unicode="&#xF146;"
      horiz-adv-x="512" d=" M256 192C326.7 192 384 249.3 384 320S326.7 448 256 448S128 390.7 128 320S185.3 192 256 192zM256 384C291.3 384 320 355.3 320 320S291.3 256 256 256S192 284.7 192 320S220.7 384 256 384zM352 160H160C89.3 160 32 102.7 32 32V-64H480V32C480 102.7 422.7 160 352 160zM416 0H96V32C96 67.3 124.7 96 160 96H352C387.3 96 416 67.3 416 32V0z" />
    <glyph glyph-name="youtube-play"
      unicode="&#xF147;"
      horiz-adv-x="512" d=" M416 384H96C43 384 0 341 0 288V96C0 43 43 0 96 0H416C469 0 512 43 512 96V288C512 341 469 384 416 384zM480 96C480 60.7 451.3 32 416 32H96C60.7 32 32 60.7 32 96V288C32 323.3 60.7 352 96 352H416C451.3 352 480 323.3 480 288V96z M192 96L320 192L192 288z" />
    <glyph glyph-name="zoom-in"
      unicode="&#xF148;"
      horiz-adv-x="512" d=" M502.6 -9.4L376 117.3C401.2 151.7 416 194.1 416 240C416 354.9 322.9 448 208 448S0 354.9 0 240S93.1 32 208 32C253.9 32 296.3 46.9 330.7 72L457.4 -54.7L502.6 -9.4zM106.2 138.2C79 165.4 64 201.5 64 240S79 314.6 106.2 341.8C133.4 369 169.5 384 208 384S282.6 369 309.8 341.8C337 314.6 352 278.5 352 240S337 165.4 309.8 138.2C282.6 111 246.5 96 208 96S133.4 111 106.2 138.2z M224 320H192V256H128V224H192V160H224V224H288V256H224z" />
    <glyph glyph-name="zoom-out"
      unicode="&#xF149;"
      horiz-adv-x="512" d=" M502.6 -9.4L376 117.3C401.2 151.7 416 194.1 416 240C416 354.9 322.9 448 208 448S0 354.9 0 240S93.1 32 208 32C253.9 32 296.3 46.9 330.7 72L457.4 -54.7L502.6 -9.4zM106.2 138.2C79 165.4 64 201.5 64 240S79 314.6 106.2 341.8C133.4 369 169.5 384 208 384S282.6 369 309.8 341.8C337 314.6 352 278.5 352 240S337 165.4 309.8 138.2C282.6 111 246.5 96 208 96S133.4 111 106.2 138.2z M128 256H288V224H128z" />
  </font>
</defs>
</svg>
